<svg version="1.1" id="Layer_1" xmlns="http://www.w3.org/2000/svg" xmlns:xlink="http://www.w3.org/1999/xlink" x="0px" y="0px"
	 width="100%" viewBox="0 0 368 480" enable-background="new 0 0 368 480" xml:space="preserve">
<path fill="#000000" opacity="1.000000" stroke="none" 
	d="
M189.359589,452.470947 
	C159.815826,458.925232 131.064697,458.851715 103.428970,446.140900 
	C91.878426,440.828339 82.254318,432.953613 76.155655,421.378662 
	C68.472916,406.797241 68.975266,391.995453 76.273178,377.754395 
	C81.511467,367.532471 82.206245,356.893585 82.887543,345.879456 
	C85.200127,308.493042 94.884964,273.681824 120.101837,244.688766 
	C132.792435,230.097778 148.925919,220.177505 165.894989,211.415924 
	C177.272675,205.541306 189.211136,200.551239 198.906540,191.878876 
	C204.630615,186.758804 208.934799,180.777847 208.985825,172.562973 
	C209.013992,168.032715 206.973434,165.381256 202.657822,164.256866 
	C200.221893,163.622208 197.778122,163.159409 195.256866,163.290588 
	C185.691864,163.788239 177.919830,159.923508 172.078445,152.715530 
	C168.676712,148.518005 165.980911,149.009628 162.717468,152.232819 
	C160.823624,154.103287 159.018646,156.064484 157.194351,158.004288 
	C156.087143,159.181595 155.233246,160.888168 152.507996,159.450333 
	C154.292358,152.078568 161.224777,149.119476 167.122330,143.978516 
	C161.796951,142.750351 158.207184,144.571411 154.638092,145.901062 
	C152.642410,146.644516 150.938599,148.136719 149.010132,149.106247 
	C147.429443,149.900940 145.533630,152.589371 144.024582,149.913010 
	C142.712036,147.585144 145.618805,146.735138 147.173996,145.665085 
	C150.916168,143.090256 155.062332,141.379044 159.392746,140.069687 
	C160.620071,139.698593 162.102280,139.765472 163.116486,137.665176 
	C158.593796,136.426971 154.276367,136.955994 149.964966,137.635895 
	C148.338776,137.892334 146.163773,138.756302 145.682602,136.634918 
	C145.098648,134.060394 147.701080,134.105820 149.386398,133.727982 
	C159.406540,131.481583 161.443024,130.218918 168.810715,123.027138 
	C173.235214,118.708290 175.987411,114.001434 177.165955,107.655838 
	C179.097061,97.258408 185.032104,88.999413 194.434937,83.685638 
	C197.515488,81.944748 198.506485,80.067101 197.352325,76.460304 
	C195.327332,70.132088 193.893677,63.614025 192.233917,57.169922 
	C191.731125,55.217781 191.171722,53.195736 193.087753,51.640553 
	C194.852585,50.208099 196.641098,51.193062 198.260986,51.921448 
	C203.726593,54.379044 208.730331,57.638157 214.247116,62.184608 
	C214.683792,57.005775 215.033463,52.817284 215.391388,48.629501 
	C215.597794,46.214512 214.694321,43.223724 217.287888,41.796429 
	C220.148453,40.222210 222.288544,42.753796 224.437149,44.143295 
	C234.646927,50.745930 242.828125,59.495014 250.158646,69.063408 
	C254.420959,74.626938 258.920135,79.815254 264.368713,84.366982 
	C278.785339,96.410599 288.209320,112.159958 294.958282,129.384491 
	C305.441040,156.138321 310.850433,183.889374 310.297546,212.795715 
	C309.919037,232.584625 305.650543,251.427002 298.219055,269.589874 
	C283.539764,305.466553 275.339294,342.553406 276.345520,381.477417 
	C276.473358,386.422089 277.223999,389.982483 283.174530,391.784851 
	C292.374664,394.571533 297.157623,404.824097 294.255219,412.896729 
	C292.742065,417.105316 290.017853,419.404663 285.289673,419.333679 
	C275.959015,419.193634 266.624573,419.328735 257.292450,419.253448 
	C254.931778,419.234406 251.568878,419.910828 251.789078,416.084991 
	C251.986221,412.659241 255.176926,412.976196 257.626160,412.963379 
	C265.958588,412.919830 274.291718,413.017426 282.624237,412.979156 
	C288.180298,412.953644 290.018799,410.320740 288.307922,404.952667 
	C286.802002,400.227783 283.416779,397.074280 278.710510,396.452087 
	C272.390656,395.616547 271.044525,391.749878 270.779816,386.421844 
	C269.659149,363.867004 271.306488,341.590088 276.057434,319.454285 
	C280.238312,299.974762 286.913513,281.364899 294.213684,262.945251 
	C303.326782,239.951233 305.177979,216.142120 303.266296,191.762466 
	C301.439423,168.464218 296.012390,146.105133 286.347626,124.827454 
	C279.292358,109.294785 269.724762,95.612717 256.022125,85.123184 
	C250.222565,80.683578 246.750793,74.250412 242.122879,68.808540 
	C236.300323,61.961884 230.348328,55.316093 221.474945,49.806484 
	C221.048447,55.170547 220.030029,59.754112 220.461838,64.196716 
	C221.478256,74.654327 218.513458,80.943871 207.305695,84.151222 
	C193.691437,88.047241 184.300217,97.323906 182.439926,112.410980 
	C181.608749,119.151901 176.433304,123.312943 172.552643,128.169449 
	C178.121307,132.982376 178.262894,133.445587 173.847061,139.622406 
	C172.546616,141.441467 172.436707,142.848480 173.569534,144.568573 
	C178.152618,151.527664 183.696426,156.926712 192.796219,156.958557 
	C195.446732,156.967834 198.096512,157.453690 200.744980,157.736450 
	C211.831741,158.920105 217.512405,167.028595 214.694336,177.847443 
	C211.220535,191.183762 201.351318,198.979050 190.158890,205.413513 
	C178.469101,212.133926 166.162552,217.697189 154.483307,224.482559 
	C127.279396,240.287460 109.620628,263.546753 99.284111,292.938019 
	C92.584602,311.987671 89.624718,331.609436 89.048225,351.681580 
	C88.776970,361.126160 86.720451,369.983826 82.413994,378.554718 
	C69.683212,403.891846 79.976166,429.698639 107.562485,441.499573 
	C133.817886,452.731079 161.135880,453.893646 188.318420,446.386444 
	C222.935333,436.826050 247.054428,415.080322 255.922516,379.567078 
	C262.778503,352.111664 257.412811,326.059418 241.722443,302.325226 
	C239.579178,299.083160 237.142776,296.169739 233.275894,294.864075 
	C227.885117,293.043854 223.831757,296.101929 224.237427,301.764709 
	C224.497375,305.393280 226.380127,308.349457 228.334061,311.285156 
	C237.205765,324.614441 242.730820,339.298706 242.953735,355.269470 
	C243.363998,384.662292 231.017197,407.758728 205.150391,422.092957 
	C176.189346,438.141968 146.019974,439.011993 115.980949,424.821777 
	C106.275688,420.237091 98.758881,412.795441 96.309998,401.607330 
	C95.960846,400.012177 95.902283,398.297760 96.044098,396.667633 
	C96.168175,395.241547 97.147232,394.204376 98.724968,394.234131 
	C100.009995,394.258362 100.928391,394.964264 101.205360,396.281494 
	C105.741989,417.857117 122.703590,423.346161 141.032928,426.729370 
	C161.457230,430.499237 181.142471,428.017181 199.698105,418.400177 
	C205.470520,415.408478 210.836121,411.763367 215.498184,407.118713 
	C218.292038,404.335266 217.643631,402.696259 214.309402,401.284210 
	C212.256012,400.414642 210.141541,400.156830 207.965210,400.141785 
	C201.799545,400.099213 195.633347,400.106476 189.468246,400.025696 
	C187.400070,399.998596 185.355225,399.558319 184.569946,397.313263 
	C183.824753,395.182861 185.392166,393.839111 186.759476,392.662201 
	C193.079697,387.222076 199.210892,381.664551 204.032455,374.729767 
	C216.890656,356.235992 214.675034,327.037689 199.001678,310.869385 
	C185.347946,296.784485 164.075562,295.536194 148.756378,307.901764 
	C146.958252,309.353241 144.944580,311.436920 142.802414,308.774048 
	C140.707245,306.169586 143.020569,304.427612 144.847794,303.048615 
	C168.582779,285.136292 197.302872,293.063965 210.857254,316.718384 
	C225.114075,341.598755 219.876251,369.220490 200.647720,388.162964 
	C199.133148,389.654968 197.455872,390.981812 195.854202,392.385406 
	C196.041275,392.860229 196.228348,393.335022 196.415421,393.809845 
	C198.826096,393.809845 201.240601,393.897583 203.646683,393.792542 
	C209.603287,393.532440 215.313873,394.388672 220.401581,397.669830 
	C222.566498,399.066010 223.737381,398.162506 224.896378,396.447723 
	C234.938507,381.589783 238.803055,365.248779 236.149414,347.536835 
	C234.324890,335.359039 229.709946,324.206970 222.886078,313.896759 
	C218.993820,308.015961 215.390121,301.841431 219.612823,294.420105 
	C222.756271,288.895508 229.120102,286.578033 235.037323,288.950073 
	C239.844818,290.877258 243.472824,294.181305 246.396149,298.389374 
	C257.310364,314.100250 262.901306,331.558594 264.374908,350.590485 
	C266.716644,380.834961 256.377625,406.241180 235.159698,427.263763 
	C222.509216,439.797760 207.020294,447.848267 189.359589,452.470947 
M200.339569,63.106644 
	C201.289658,66.951958 202.195480,70.808907 203.201172,74.639618 
	C204.432602,79.330147 207.546555,76.652893 209.963623,76.212212 
	C212.852722,75.685455 214.332840,73.936501 213.549408,70.875099 
	C212.849701,68.140923 203.840302,61.252220 200.985275,61.272942 
	C200.767609,61.274517 200.555496,62.040924 200.339569,63.106644 
z"/>
<path fill="#000000" opacity="1.000000" stroke="none" 
	d="
M238.951828,148.112122 
	C224.877792,139.928406 209.445084,139.079422 193.082611,138.861923 
	C195.604050,134.741959 198.343201,135.060074 200.620163,135.079453 
	C214.899139,135.200989 228.658752,137.679596 241.234207,144.893204 
	C242.818054,145.801758 245.800827,146.472443 244.373947,148.958176 
	C242.925858,151.480820 240.958817,148.987976 238.951828,148.112122 
z"/>
<path fill="#000000" opacity="1.000000" stroke="none" 
	d="
M210.406921,126.902664 
	C217.683853,126.825455 224.522797,126.321121 231.271881,127.795326 
	C233.513474,128.284958 235.793716,128.700378 236.940613,130.871902 
	C235.978104,133.075073 234.494278,132.838379 232.991196,132.466217 
	C220.855453,129.461624 208.905121,130.525421 197.064758,134.080261 
	C196.587036,134.223679 196.102051,134.366409 195.610092,134.434509 
	C194.213120,134.627869 192.414398,135.633179 191.785492,133.547150 
	C191.169128,131.502838 192.995178,131.101761 194.445465,130.738754 
	C199.605820,129.447083 204.779205,128.207367 210.406921,126.902664 
z"/>
<path fill="#000000" opacity="1.000000" stroke="none" 
	d="
M218.338470,148.543640 
	C221.987869,151.203278 225.362640,153.621765 228.627533,156.180450 
	C229.896027,157.174545 231.586914,158.540710 229.964752,160.258911 
	C228.531815,161.776703 227.177979,160.120712 226.166824,159.195236 
	C220.188080,153.723007 213.274414,149.872650 205.731552,147.043823 
	C202.134033,145.694626 198.423218,144.856674 194.632828,144.309174 
	C193.116379,144.090149 191.601822,143.824478 191.602951,141.052567 
	C201.530807,139.524384 209.671936,144.355606 218.338470,148.543640 
z"/>
<path fill="#000000" opacity="1.000000" stroke="none" 
	d="
M194.055450,113.131187 
	C194.898468,109.603104 196.641678,107.351501 200.051941,106.974518 
	C202.564774,106.696747 204.597534,107.800232 205.945068,109.888969 
	C207.493729,112.289497 207.752380,114.863289 206.102936,117.341072 
	C204.596725,119.603699 202.380051,120.694710 199.704697,120.124062 
	C196.235809,119.384171 194.405777,117.019264 194.055450,113.131187 
z"/>
</svg>