<svg xmlns="http://www.w3.org/2000/svg" viewBox="0 0 64 64">
  <!-- Gecko icon — bold, simplified for visibility at small sizes -->
  <!-- Head -->
  <ellipse fill="#000" cx="32" cy="14" rx="8" ry="7"/>
  <!-- Body -->
  <ellipse fill="#000" cx="32" cy="35" rx="9" ry="16"/>
  <!-- Front left leg + toes -->
  <path fill="#000" d="M23 26l-10-5-3 1 3 3h-5l-1 3h6l5-1z"/>
  <!-- Front right leg + toes -->
  <path fill="#000" d="M41 26l10-5 3 1-3 3h5l1 3h-6l-5-1z"/>
  <!-- Back left leg + toes -->
  <path fill="#000" d="M23 44l-10 5-3-1 3-3h-5l-1-3h6l5 1z"/>
  <!-- Back right leg + toes -->
  <path fill="#000" d="M41 44l10 5 3-1-3-3h5l1-3h-6l-5 1z"/>
  <!-- Tail -->
  <path fill="#000" d="M29 51q-1 4 0 7q1 3 3 6q2-3 3-6q1-3 0-7q-1 2-3 3q-2-1-3-3z"/>
</svg>