<svg version="1.1" id="Layer_1" xmlns="http://www.w3.org/2000/svg" xmlns:xlink="http://www.w3.org/1999/xlink" x="0px" y="0px"
	 width="100%" viewBox="0 0 480 528" enable-background="new 0 0 480 528" xml:space="preserve">
<path fill="#000000" opacity="1.000000" stroke="none" 
	d="
M207.500397,436.365143 
	C198.194763,451.963898 184.643265,460.407623 167.031784,461.775604 
	C158.726990,462.420685 150.490952,460.507690 142.347717,458.720184 
	C136.343140,457.402100 130.428375,455.744202 124.260246,455.081726 
	C109.525436,453.499115 99.641869,458.523132 92.617577,471.602051 
	C91.435974,473.802124 90.328903,476.048645 89.029503,478.177338 
	C87.473473,480.726440 85.430771,482.963043 82.138115,481.476715 
	C79.114250,480.111664 78.722412,477.389862 79.325165,474.258942 
	C82.817337,456.119171 96.837128,442.089386 115.042297,437.906677 
	C125.681938,435.462189 135.884766,438.241394 146.254868,439.316711 
	C152.732895,439.988464 159.250732,440.602905 165.641663,439.033020 
	C180.584503,435.362457 188.462723,421.905334 185.640778,405.862274 
	C184.014069,396.614197 181.214157,387.732910 177.759567,379.092102 
	C166.742477,351.535736 167.957397,324.395935 180.362823,297.721985 
	C183.610580,290.738708 184.390991,284.877502 179.117035,278.427887 
	C174.587830,272.889099 173.246490,265.598785 171.119858,257.570557 
	C164.851517,265.339325 157.688797,269.962341 149.988724,273.935699 
	C147.109848,275.421234 147.118774,278.580078 147.383514,281.505524 
	C147.577682,283.651337 148.062073,285.821869 147.890350,287.938629 
	C147.580002,291.765015 145.434372,294.370667 141.719330,295.613495 
	C138.347672,296.741455 135.407104,295.892883 133.019241,293.458893 
	C130.404861,290.794006 129.278931,287.709229 130.708557,283.888336 
	C131.912216,280.671356 134.368744,277.879547 134.246124,273.958130 
	C131.407333,272.588104 129.557388,274.630371 127.555466,275.845673 
	C125.286896,277.222839 123.246750,279.056519 120.856239,280.135529 
	C116.205032,282.234802 110.981178,280.048889 109.210304,275.611816 
	C107.238457,270.671204 109.424812,265.842377 114.548180,263.903259 
	C118.511787,262.403076 123.141953,263.223541 127.193359,260.383514 
	C124.462479,258.003113 121.273315,257.694183 118.353401,256.737579 
	C112.621910,254.859787 109.222473,250.127991 110.353340,245.721085 
	C112.108368,238.881866 119.866058,236.699295 125.428833,241.466843 
	C128.134705,243.785904 129.876404,247.289413 133.758835,248.432571 
	C134.438034,246.052826 133.097519,244.409500 132.183975,242.727692 
	C130.151550,238.986069 130.903122,235.585205 133.425018,232.525864 
	C135.512726,229.993256 138.356644,229.208115 141.542801,230.137512 
	C145.512756,231.295578 147.698181,234.047440 147.980301,238.116196 
	C148.116562,240.081467 147.757751,242.083084 147.598145,244.066238 
	C147.455048,245.844223 146.867722,247.720810 148.849167,249.064941 
	C151.136932,248.323044 151.959671,246.197983 153.167496,244.481110 
	C156.806442,239.308487 159.882614,233.731644 164.202652,229.049210 
	C170.793289,221.905731 177.807663,221.504959 185.215897,227.836029 
	C190.367401,232.238510 193.917999,237.875458 197.317444,243.623642 
	C198.149216,245.030136 198.950623,246.454559 200.677353,249.453613 
	C213.105469,208.740784 243.331818,186.800507 278.483459,170.084625 
	C277.183746,166.964798 274.857788,166.640915 273.015625,165.719666 
	C270.190369,164.306747 267.211029,163.193146 264.425323,161.711472 
	C253.251694,155.768387 250.719223,148.694916 255.402954,136.896225 
	C257.000244,132.872467 258.734283,128.894577 260.133179,124.802513 
	C262.048553,119.199646 260.260681,116.230804 254.501831,115.035271 
	C252.546753,114.629402 250.526367,114.511848 248.593567,114.030617 
	C245.078873,113.155502 243.406113,110.538368 242.900757,107.176476 
	C242.421249,103.986534 243.286606,101.237152 246.205215,99.407379 
	C249.032562,97.634834 251.844574,97.571465 254.645813,99.415047 
	C256.422241,100.584183 258.165253,101.804123 260.372040,103.306885 
	C260.997223,99.107925 258.066254,96.867615 256.831451,94.024559 
	C255.698853,91.416878 254.139008,89.009750 255.612976,86.002113 
	C257.423645,82.307472 260.279144,80.264015 264.404449,80.827202 
	C268.998779,81.454430 271.200714,84.724838 272.020050,88.975357 
	C272.610199,92.037086 271.795349,95.309731 273.440002,98.618683 
	C275.776062,96.845352 275.415283,94.130394 276.310730,91.998131 
	C278.016510,87.936333 280.463531,84.572365 285.458557,84.877701 
	C289.612091,85.131599 292.191895,87.585129 293.026611,91.649208 
	C293.732849,95.087738 292.179718,97.709595 289.813477,100.115807 
	C287.824402,102.138458 285.046478,103.717476 284.709717,107.033379 
	C286.774506,108.054230 288.163361,106.701012 289.675385,106.259621 
	C293.352295,105.186264 296.263855,106.428421 298.604523,109.149231 
	C300.756989,111.651253 301.129639,114.592636 299.670197,117.554466 
	C298.038147,120.866508 295.256348,122.431374 291.533264,122.184929 
	C290.705200,122.130112 289.876373,122.015663 289.060211,121.862816 
	C281.439270,120.435539 279.828735,121.538376 278.184265,129.339905 
	C275.478241,142.177872 275.771698,142.665146 288.212158,145.796432 
	C290.955322,146.486908 293.675568,147.364349 296.462524,147.766861 
	C305.302704,149.043655 310.926788,144.955200 312.635193,136.163269 
	C313.459625,131.920547 314.016785,127.619904 314.986572,123.412704 
	C316.759521,115.721062 320.434235,109.109146 326.909485,104.346573 
	C340.241913,94.540504 355.094025,87.880722 371.256195,84.690926 
	C383.771362,82.220917 392.291016,89.979492 392.318359,102.806488 
	C392.342621,114.195038 388.045013,124.615791 384.736420,135.228775 
	C383.256348,139.976364 381.499451,144.657196 378.969208,149.029144 
	C374.237091,157.205658 367.442810,162.619400 358.465271,165.516678 
	C353.418884,167.145294 348.164001,168.331482 343.764771,171.597366 
	C338.122009,175.786407 336.165161,180.967682 337.911743,187.773651 
	C339.317261,193.250824 340.861420,198.692291 342.313568,204.157700 
	C342.807129,206.015213 343.446747,207.965881 345.719696,207.814209 
	C350.530457,207.493225 355.407013,206.980209 359.609283,204.373779 
	C362.687958,202.464264 362.913422,199.775589 360.998047,196.632385 
	C358.759674,192.959106 358.116547,189.017532 361.372681,185.574951 
	C364.001007,182.796158 367.382263,181.864670 370.939117,183.747009 
	C374.477875,185.619797 376.248352,188.709488 375.896759,192.787689 
	C375.759583,194.378723 374.779663,195.918884 375.767426,198.073914 
	C379.038116,196.014496 379.987701,192.383621 382.306396,189.931793 
	C386.663422,185.324524 393.030640,185.857925 396.148163,191.217407 
	C398.662964,195.540665 396.843292,200.245407 391.610199,203.209473 
	C389.263275,204.538818 386.117798,204.717606 384.551147,208.010956 
	C387.877136,209.322922 390.925659,207.667419 393.953033,207.908676 
	C397.711243,208.208176 400.868439,209.356323 402.558563,212.878662 
	C404.133575,216.161163 403.720154,219.467865 401.318512,222.213287 
	C399.015289,224.846222 396.027649,225.287750 392.645508,224.370285 
	C389.037598,223.391586 386.102203,220.421509 381.965027,220.519958 
	C381.675507,223.217590 383.665375,224.234573 384.885132,225.651047 
	C387.561523,228.759094 388.232208,232.205811 386.336334,235.816254 
	C384.703400,238.926041 381.693085,240.207275 378.333832,239.775894 
	C374.225525,239.248322 371.985779,236.424133 371.052856,232.515991 
	C368.503876,221.837814 366.449158,220.947693 356.594696,226.021820 
	C352.898132,227.925201 349.154633,229.799942 345.274536,231.271210 
	C337.482880,234.225708 331.703278,232.349197 327.199646,225.338440 
	C324.257446,220.758347 321.751526,215.897964 318.543945,210.275787 
	C311.106293,226.760117 304.630920,242.967819 293.190063,256.398163 
	C281.649078,269.946075 267.375153,279.732483 250.007797,287.448181 
	C256.879578,290.226257 263.079132,291.012512 268.348541,294.144653 
	C269.632202,294.907654 271.068146,295.411194 272.369385,296.148315 
	C284.388123,302.956177 286.143646,310.039185 278.452240,321.463043 
	C275.760651,325.460754 272.659363,329.182007 269.763519,333.043243 
	C268.690369,334.474121 267.264587,335.767578 267.640137,338.103516 
	C270.409149,339.680939 272.621033,337.682953 274.933990,336.758972 
	C279.999115,334.735626 284.820282,335.469849 287.174652,338.954407 
	C288.955627,341.590363 289.398895,344.602356 288.009888,347.504517 
	C286.630371,350.386841 284.154999,351.985870 280.880676,352.270477 
	C278.108185,352.511505 275.287048,351.511566 272.442505,352.527100 
	C272.587952,354.694336 274.349274,355.118347 275.721100,355.896149 
	C277.603363,356.963318 279.556152,357.914246 281.388794,359.059021 
	C284.942139,361.278687 286.913635,364.460480 286.126678,368.715912 
	C285.424744,372.511658 282.917175,374.979492 279.114288,375.630310 
	C274.700043,376.385712 271.385986,374.442200 269.034485,370.703033 
	C267.208954,367.800232 265.886169,364.497223 262.521851,362.122498 
	C260.635498,365.834869 262.197601,369.218414 262.695038,372.364380 
	C263.452545,377.154877 262.740845,380.990448 258.379974,383.542236 
	C254.976334,385.533844 251.563568,385.195618 248.650436,382.613098 
	C245.015411,379.390594 244.196045,375.461334 246.106079,370.852966 
	C247.533981,367.407928 249.548264,363.971344 248.266113,359.984894 
	C245.688919,358.821167 244.445663,360.725220 242.933609,361.884186 
	C241.356049,363.093323 239.879715,364.456360 238.211609,365.520966 
	C234.927094,367.617126 231.567551,367.551392 228.402756,365.228729 
	C225.452667,363.063690 224.217972,360.055450 224.854431,356.464508 
	C225.538254,352.606171 228.066635,350.369873 231.791275,349.469360 
	C233.241852,349.118652 234.749893,349.013123 236.216248,348.718689 
	C240.498901,347.858765 243.353699,345.941864 243.871780,340.959381 
	C244.656174,333.415955 247.449219,326.455902 251.799637,320.509796 
	C251.373123,319.062408 250.472290,319.060120 249.673386,319.096741 
	C242.592819,319.421143 235.698120,318.353790 229.034012,316.051025 
	C224.814621,314.593079 221.643448,315.740906 218.788208,318.940552 
	C211.858353,326.706177 208.357162,336.001282 207.428558,346.121429 
	C206.418915,357.124451 207.905426,367.974640 210.508591,378.766602 
	C214.144928,393.841949 217.218384,409.035645 212.526535,424.575348 
	C211.308807,428.608551 209.488403,432.303070 207.500397,436.365143 
M141.196976,246.238815 
	C141.655807,243.834244 142.368011,241.442780 142.493362,239.020950 
	C142.593750,237.081207 141.446304,235.356216 139.203476,235.683990 
	C137.083801,235.993759 137.017410,237.919861 137.318207,239.585434 
	C137.823776,242.384750 139.748550,244.538040 140.952011,247.797195 
	C140.040436,254.944992 136.111359,256.869446 129.953125,253.163132 
	C127.052795,251.417572 124.926697,248.837112 122.648514,246.403366 
	C121.522560,245.200516 120.091637,244.082657 118.244217,244.846832 
	C117.109283,245.316284 116.368828,246.337982 116.435577,247.609756 
	C116.539742,249.594498 118.034981,250.345779 119.675125,250.949249 
	C122.952759,252.155212 126.252937,253.315536 129.463867,254.682480 
	C132.322662,255.899490 134.029297,258.217499 133.794235,261.348419 
	C133.569305,264.344330 131.301376,265.860504 128.675491,266.899994 
	C125.513496,268.151703 122.177734,268.199982 118.869629,268.556549 
	C117.064590,268.751068 115.147842,269.218536 114.512589,271.328461 
	C114.081390,272.760590 114.657433,273.985962 115.877281,274.790436 
	C117.868385,276.103577 119.393837,274.787109 120.794739,273.646729 
	C123.523491,271.425415 126.405167,269.515717 129.620789,268.039246 
	C132.515152,266.710297 135.081924,266.925446 137.561478,268.851471 
	C140.308945,270.985626 140.774399,273.901031 139.890503,276.954315 
	C139.202774,279.330048 137.961166,281.545746 136.961197,283.830627 
	C136.196259,285.578461 135.703308,287.376892 137.143326,288.972626 
	C138.178467,290.119690 139.559921,290.039215 140.787613,289.241699 
	C142.674118,288.016174 142.321869,286.244049 142.032623,284.334045 
	C140.566803,274.654846 142.083221,270.963135 150.489746,266.855042 
	C157.775131,263.294830 163.541107,258.381531 167.851212,251.576462 
	C168.874649,249.960587 169.987411,247.851120 172.447021,248.424774 
	C174.599625,248.926819 175.536484,250.849808 176.165268,252.794327 
	C176.624130,254.213348 176.937378,255.686661 177.220474,257.154114 
	C178.624390,264.431915 181.100098,271.296722 185.377457,277.386841 
	C189.082626,282.662262 190.235611,288.134186 187.979965,294.358307 
	C184.695496,303.421356 180.487045,312.185852 178.396957,321.641968 
	C174.404968,339.702850 176.445221,357.331604 182.546127,374.656708 
	C186.021729,384.526581 190.039780,394.247498 191.725998,404.666595 
	C194.934219,424.490540 185.141327,440.351959 166.807404,444.822784 
	C158.741638,446.789642 150.596237,445.952972 142.505508,444.799591 
	C132.922348,443.433472 123.350967,442.263000 113.722527,444.357635 
	C104.592690,446.343811 94.698624,453.906799 92.264404,461.068756 
	C101.346260,450.281555 112.785583,447.747284 125.862167,449.429565 
	C133.164200,450.368927 140.237976,452.144104 147.393143,453.699829 
	C158.717972,456.162109 170.031677,457.351349 181.181625,452.388702 
	C201.979446,443.131958 211.477432,421.191467 208.144958,399.483917 
	C206.177567,386.668182 203.177521,373.999115 201.517853,361.150940 
	C199.341766,344.304718 202.876480,328.674042 214.028595,315.308411 
	C217.164230,311.550446 221.005203,308.719574 226.129501,309.762238 
	C235.936874,311.757751 245.735901,313.222229 255.798233,313.223663 
	C260.127075,313.224274 261.886841,316.958740 259.239014,320.148224 
	C253.486679,327.077209 250.813614,335.035004 249.299377,343.744537 
	C248.129822,350.471588 243.961960,353.627869 237.195251,354.291565 
	C236.202896,354.388916 235.179108,354.384521 234.229004,354.643921 
	C232.709091,355.058868 231.487350,355.921021 231.290298,357.658142 
	C231.171814,358.702850 231.424911,359.693115 232.378677,360.272888 
	C233.872604,361.181000 235.281403,360.710205 236.553848,359.761200 
	C238.951248,357.973175 241.160263,355.875427 243.723740,354.379791 
	C248.276184,351.723724 252.267517,353.511963 253.770065,358.566071 
	C254.560318,361.224274 254.158646,363.859680 253.489807,366.457184 
	C252.826385,369.033722 251.890182,371.548706 251.365646,374.149567 
	C250.944473,376.237915 251.284134,378.432465 253.984894,378.605713 
	C256.391937,378.760101 256.988068,376.809753 256.963654,374.845734 
	C256.943115,373.194336 256.551453,371.551117 256.415863,369.896759 
	C256.212616,367.416290 255.890976,364.921631 255.985123,362.446930 
	C256.092651,359.619934 257.314789,357.236023 260.196381,356.234070 
	C262.889038,355.297821 265.200226,356.455994 266.997101,358.282928 
	C268.609497,359.922241 269.836029,361.946716 271.192474,363.830322 
	C272.357117,365.447540 273.291870,367.269379 274.645721,368.700439 
	C276.027832,370.161346 277.954071,370.575195 279.484985,368.884247 
	C281.040497,367.166077 280.414398,365.324341 278.721191,364.153442 
	C276.818268,362.837463 274.647644,361.912689 272.613922,360.780975 
	C266.761810,357.524292 264.078522,353.619080 265.271790,350.138702 
	C266.533051,346.459991 270.656433,345.144379 277.445618,346.257355 
	C277.609283,346.284180 277.767426,346.343262 277.929321,346.382507 
	C279.668427,346.804260 281.312897,346.715057 282.358215,345.050018 
	C282.923584,344.149445 282.809479,343.082245 282.020203,342.288483 
	C280.593933,340.854065 278.980408,341.191681 277.420563,342.022522 
	C274.600098,343.524780 271.694336,344.708954 268.439941,344.775330 
	C262.043091,344.905853 259.174164,340.682800 261.953278,334.929108 
	C263.100067,332.554962 264.754517,330.412994 266.282318,328.238647 
	C269.531311,323.614655 273.328033,319.398163 275.885712,314.261108 
	C278.178894,309.655334 277.007202,306.259796 273.030670,303.498932 
	C266.516327,298.976105 259.235992,296.200714 251.612885,294.228363 
	C248.558426,293.438080 245.350525,293.005859 242.486343,291.773926 
	C238.834381,290.203156 238.678787,287.040192 242.076080,284.993134 
	C245.202057,283.109558 248.593582,281.655304 251.909470,280.100098 
	C273.062866,270.178558 289.703217,255.467590 300.734161,234.633743 
	C305.264374,226.077637 308.833221,217.105530 312.861176,208.332474 
	C313.970001,205.917328 315.385010,203.303772 318.450287,203.181686 
	C321.543121,203.058502 323.033875,205.588028 324.325043,207.948273 
	C326.639465,212.179108 328.639771,216.592560 331.124390,220.717041 
	C334.912933,227.006012 338.084412,228.045258 344.916962,225.247650 
	C348.911896,223.611893 352.685364,221.440186 356.581604,219.557419 
	C365.160675,215.411789 368.657562,216.070358 375.187347,223.737946 
	C375.774902,226.323517 376.347198,228.912720 376.957123,231.493011 
	C377.222931,232.617310 377.408813,233.870468 378.927399,234.001266 
	C379.815948,234.077820 380.538544,233.680618 381.064850,232.970261 
	C381.908447,231.831757 381.570251,230.757660 380.764862,229.796494 
	C378.855377,227.517639 376.906250,225.272018 374.965729,222.204086 
	C375.549072,215.962601 378.583191,213.570831 384.547241,215.097916 
	C387.567871,215.871353 390.397369,217.370209 393.348785,218.443329 
	C395.043640,219.059540 396.903534,219.084549 397.389557,216.963776 
	C397.898987,214.740921 396.095886,214.096558 394.327271,214.053894 
	C391.846680,213.994080 389.343597,214.396118 386.880280,214.207367 
	C383.617462,213.957367 380.030853,213.931976 378.271942,210.379440 
	C376.502747,206.806091 379.122620,204.486221 381.695190,201.814575 
	C384.339172,200.422714 387.073975,199.174377 389.591034,197.581894 
	C390.966675,196.711548 392.354187,195.254318 390.613098,193.484863 
	C389.001770,191.847260 387.534424,192.722977 386.433685,194.217239 
	C384.558868,196.762283 382.798309,199.391525 380.332184,202.235947 
	C377.677673,204.142456 374.842743,205.921051 371.668213,203.711777 
	C368.464478,201.482224 368.474762,198.139603 369.407379,194.691757 
	C369.622528,193.896423 369.690552,193.050659 369.737793,192.223068 
	C369.805969,191.027863 369.685791,189.863907 368.501648,189.167831 
	C367.663086,188.674881 366.905609,188.891602 366.251740,189.536026 
	C365.305389,190.468765 365.237183,191.605637 365.651062,192.773895 
	C365.983795,193.712952 366.465881,194.598038 366.826233,195.528549 
	C369.318665,201.964569 367.440063,206.887024 361.312469,210.049667 
	C357.254333,212.144196 352.866241,213.030106 348.402954,213.739441 
	C341.922668,214.769348 339.395996,213.456314 337.485168,207.322464 
	C335.604797,201.286285 334.336884,195.043121 332.198456,189.107559 
	C329.446075,181.467865 332.104218,175.420258 336.906464,169.868591 
	C341.605408,164.436356 348.193481,162.487518 354.811981,160.578857 
	C365.396942,157.526367 372.866302,151.117874 376.351990,139.995117 
	C371.873962,138.076492 370.111511,134.778030 371.138336,130.266373 
	C372.031616,126.341530 373.927338,122.380608 378.119232,122.055702 
	C382.848541,121.689156 383.814392,119.116554 384.467194,115.467033 
	C385.082794,112.025497 386.087341,108.640617 386.514221,105.180656 
	C387.798218,94.773254 381.689117,88.804405 371.329834,90.281448 
	C365.499054,91.112808 360.259491,93.833778 354.790588,95.812561 
	C352.643005,96.589615 352.527130,98.134331 352.702057,100.224876 
	C353.068359,104.603386 350.452179,107.420876 346.808258,109.230247 
	C343.258148,110.993019 339.644623,111.122246 336.728058,107.937721 
	C335.096924,106.156723 333.831909,106.459160 332.014221,107.647591 
	C326.223969,111.433319 323.014008,116.924553 321.371796,123.410469 
	C319.862976,129.369583 319.041534,135.528366 317.192810,141.369919 
	C314.259735,150.637848 305.797729,155.797379 296.600464,153.982346 
	C290.247589,152.728638 284.003723,150.831955 277.804260,148.920563 
	C272.938202,147.420288 270.587494,143.964447 270.851624,138.690659 
	C271.095123,133.828278 271.950195,129.081635 273.318939,124.461372 
	C275.662628,116.549919 281.068665,113.667175 289.057800,115.746780 
	C289.862305,115.956192 290.643585,116.329773 291.457428,116.412155 
	C293.016510,116.569984 294.196411,115.772995 294.211243,114.231003 
	C294.228058,112.488106 292.787537,112.067223 291.350433,112.345001 
	C289.724304,112.659317 288.159424,113.277481 286.551147,113.699776 
	C283.787323,114.425484 281.176910,114.247025 279.333588,111.760300 
	C277.440979,109.207123 277.558594,106.450905 279.124298,103.780098 
	C280.562286,101.327217 282.317078,99.107109 284.492432,97.246140 
	C285.998535,95.957718 287.852051,94.814835 287.250366,92.394058 
	C286.992554,91.356804 286.072418,90.598518 285.014526,90.747963 
	C282.253204,91.138016 281.932739,93.625862 281.527924,95.638580 
	C280.914581,98.688324 279.523560,101.307533 277.726959,103.699043 
	C275.278229,106.958633 271.282135,106.823959 268.906555,103.516159 
	C268.136536,102.443993 267.611206,101.196083 266.903992,99.197281 
	C266.545776,96.071892 266.233398,92.940277 265.809875,89.823753 
	C265.599915,88.278557 264.946106,86.530769 263.131165,86.917114 
	C260.998444,87.371124 261.008698,89.328583 261.847748,90.932350 
	C263.458588,94.011269 265.283691,96.978073 267.077911,100.844788 
	C267.352142,103.881470 267.745026,107.163116 264.467590,108.794403 
	C261.092041,110.474533 258.024658,109.001373 255.247787,106.854530 
	C254.199341,106.043968 253.124100,105.223595 251.946762,104.637093 
	C250.830780,104.081154 249.585739,104.146095 248.938141,105.450691 
	C248.249603,106.837738 249.154800,107.781097 250.279114,108.197060 
	C251.823990,108.768631 253.473297,109.100952 255.103561,109.391586 
	C265.297791,111.208885 269.071350,117.702202 265.525208,127.421600 
	C263.701630,132.419693 261.561584,137.323227 260.075958,142.418610 
	C258.054840,149.350525 259.591217,152.626404 265.972839,155.861923 
	C270.568512,158.191956 275.389008,160.079544 279.977936,162.421677 
	C287.537292,166.279907 287.793976,170.661011 280.658539,175.048477 
	C275.560211,178.183365 270.277374,181.031204 264.989197,183.842163 
	C235.798279,199.358765 214.589096,221.608978 205.419510,254.099350 
	C204.751556,256.466095 204.213348,259.216675 200.987442,259.386658 
	C197.967819,259.545715 197.299759,256.905457 196.332458,254.871567 
	C192.890778,247.635010 189.328491,240.483353 183.645020,234.667313 
	C176.564392,227.421494 173.042770,227.526703 166.636337,235.284760 
	C164.947083,237.330414 163.544388,239.615616 162.045914,241.815201 
	C159.797638,245.115417 157.610977,248.457916 155.341415,251.743271 
	C153.517319,254.383820 151.134003,256.008514 147.735199,255.445877 
	C144.497696,254.909958 143.058304,252.573151 142.098099,249.757797 
	C141.777725,248.818420 141.386246,247.903275 141.196976,246.238815 
z"/>
<path fill="#000000" opacity="1.000000" stroke="none" 
	d="
M195.523834,307.734741 
	C203.034027,285.241852 213.382385,264.676727 227.424225,246.002106 
	C240.998810,227.948868 257.813110,213.499115 276.494385,200.996613 
	C290.686432,191.498550 303.009064,179.859024 314.014587,166.817017 
	C314.658661,166.053802 315.291931,165.273666 316.005402,164.578568 
	C317.420593,163.199905 319.032135,162.247437 320.806305,163.875671 
	C322.663330,165.579956 321.553741,167.109100 320.298737,168.622299 
	C311.024902,179.804001 300.740021,189.942810 289.334473,198.952881 
	C276.808105,208.848389 262.933716,216.912827 251.343964,228.122223 
	C231.999512,246.831818 217.490067,268.672485 207.299911,293.455994 
	C204.392685,300.526703 202.014725,307.814667 199.374100,314.995667 
	C198.747787,316.698914 198.241516,318.899261 195.817078,318.348450 
	C193.105484,317.732391 193.630951,315.345337 193.961060,313.413025 
	C194.267593,311.618622 194.910507,309.881653 195.523834,307.734741 
z"/>
</svg>