<?xml version="1.0" standalone="no"?>
<!DOCTYPE svg PUBLIC "-//W3C//DTD SVG 20010904//EN"
 "http://www.w3.org/TR/2001/REC-SVG-20010904/DTD/svg10.dtd">
<svg version="1.0" xmlns="http://www.w3.org/2000/svg"
 width="112.000000pt" height="113.000000pt" viewBox="0 0 112.000000 113.000000"
 preserveAspectRatio="xMidYMid meet">

<g transform="translate(0.000000,113.000000) scale(0.100000,-0.100000)"
fill="#000000" stroke="none">
<path d="M552 1018 c-7 -7 -12 -40 -12 -79 l0 -67 -127 -4 c-158 -4 -194 -19
-233 -94 -24 -47 -25 -55 -25 -244 0 -178 2 -199 22 -242 22 -49 63 -82 114
-93 25 -6 27 -11 31 -67 4 -48 9 -65 27 -79 42 -34 67 -25 150 55 l76 73 138
6 c174 7 218 24 257 102 24 48 25 57 25 245 0 189 -1 197 -25 244 -39 75 -75
90 -232 94 l-128 4 0 67 c0 64 -10 91 -35 91 -6 0 -16 -5 -23 -12z m307 -224
c64 -25 71 -52 71 -263 0 -275 -5 -281 -236 -281 l-136 0 -84 -82 -84 -82 0
70 c0 75 -9 94 -47 94 -13 0 -39 7 -59 15 -56 23 -64 56 -64 266 0 286 -10
278 352 278 203 1 255 -2 287 -15z"/>
<path d="M394 626 c-3 -8 -4 -29 -2 -48 2 -28 7 -33 28 -33 22 0 25 5 28 39 2
24 -2 42 -10 47 -20 13 -38 11 -44 -5z"/>
<path d="M712 631 c-8 -5 -12 -23 -10 -47 3 -34 6 -39 28 -39 23 0 25 4 25 45
0 46 -15 60 -43 41z"/>
</g>
</svg>
