<?xml version="1.0" standalone="no"?>
<!DOCTYPE svg PUBLIC "-//W3C//DTD SVG 20010904//EN"
 "http://www.w3.org/TR/2001/REC-SVG-20010904/DTD/svg10.dtd">
<svg version="1.0" xmlns="http://www.w3.org/2000/svg"
 width="225.000000pt" height="225.000000pt" viewBox="0 0 225.000000 225.000000"
 preserveAspectRatio="xMidYMid meet">

<g transform="translate(0.000000,225.000000) scale(0.100000,-0.100000)"
fill="#000000" stroke="none">
<path d="M435 1380 l-80 -80 83 -83 82 -82 82 83 83 82 -82 0 -82 0 -3 80 -3
81 -80 -81z m148 -90 l72 0 -68 -67 -67 -68 -75 75 -75 74 68 69 67 68 3 -76
3 -75 72 0z"/>
<path d="M780 1229 c0 -67 1 -70 22 -67 16 2 24 12 28 33 l6 30 17 -32 c13
-24 25 -33 42 -33 31 0 31 1 -2 50 l-26 41 23 24 23 25 -23 0 c-13 0 -32 -7
-42 -17 -17 -15 -18 -15 -18 0 0 11 -8 17 -25 17 -24 0 -25 -2 -25 -71z"/>
<path d="M1530 1230 l0 -70 55 0 c41 0 55 4 55 14 0 9 -12 16 -32 18 -32 3
-33 4 -36 56 -3 44 -6 52 -23 52 -17 0 -19 -7 -19 -70z"/>
<path d="M255 1198 l-80 -83 83 80 c76 74 87 85 79 85 -1 0 -38 -37 -82 -82z"/>
<path d="M948 1259 c-32 -18 -21 -32 20 -24 24 4 34 3 27 -3 -5 -6 -21 -12
-35 -14 -19 -2 -25 -9 -25 -28 0 -23 4 -25 53 -27 l52 -2 0 44 c0 34 -5 47
-19 55 -25 13 -51 12 -73 -1z m44 -71 c-6 -6 -15 -8 -19 -4 -4 4 -1 11 7 16
19 12 27 3 12 -12z"/>
<path d="M1238 1259 c-32 -18 -21 -32 20 -24 24 4 34 3 27 -3 -5 -6 -21 -12
-35 -14 -19 -2 -25 -9 -25 -28 0 -23 4 -25 53 -27 l52 -2 0 44 c0 34 -5 47
-19 55 -25 13 -51 12 -73 -1z m44 -71 c-6 -6 -15 -8 -19 -4 -4 4 -1 11 7 16
19 12 27 3 12 -12z"/>
<path d="M1396 1261 c-3 -4 -17 -6 -31 -3 -24 4 -25 2 -25 -47 0 -44 3 -51 20
-51 14 0 20 7 20 24 0 13 3 32 6 40 10 25 34 0 34 -35 0 -19 5 -29 15 -29 22
0 21 95 -1 104 -21 8 -32 8 -38 -3z"/>
<path d="M1668 1259 c-32 -18 -21 -32 20 -24 24 4 34 3 27 -3 -5 -6 -21 -12
-35 -14 -19 -2 -25 -9 -25 -28 0 -23 4 -25 53 -27 l52 -2 0 44 c0 34 -5 47
-19 55 -25 13 -51 12 -73 -1z m44 -71 c-6 -6 -15 -8 -19 -4 -4 4 -1 11 7 16
19 12 27 3 12 -12z"/>
<path d="M1803 1263 c-32 -4 -33 -5 -33 -54 0 -42 3 -49 19 -49 16 0 20 8 23
38 2 20 8 37 13 37 6 0 11 -17 13 -37 2 -29 8 -38 22 -38 14 0 20 9 22 35 4
48 22 49 26 3 3 -30 7 -38 23 -38 16 0 19 7 19 45 0 50 -25 74 -58 56 -11 -6
-24 -6 -33 0 -7 5 -16 8 -19 7 -3 -1 -20 -3 -37 -5z"/>
<path d="M1977 1259 c-27 -16 -9 -31 26 -24 22 5 29 4 22 -3 -5 -6 -21 -12
-35 -14 -19 -2 -25 -9 -25 -28 0 -23 4 -25 53 -26 l52 -2 0 44 c0 33 -5 46
-19 54 -25 13 -51 12 -74 -1z m45 -71 c-6 -6 -15 -8 -19 -4 -4 4 -1 11 7 16
19 12 27 3 12 -12z"/>
<path d="M1054 1236 c14 -56 26 -76 46 -76 13 0 20 7 20 19 0 29 18 35 22 9 2
-14 11 -24 23 -26 17 -2 24 7 37 48 15 48 15 50 -2 50 -11 0 -22 -11 -27 -27
l-10 -28 -6 28 c-9 32 -47 39 -47 8 0 -29 -18 -35 -22 -9 -2 13 -11 24 -22 26
-16 3 -18 0 -12 -22z"/>
<path d="M265 1168 l-70 -73 73 70 c39 38 72 71 72 72 0 8 -11 -2 -75 -69z"/>
<path d="M275 1138 l-60 -63 63 60 c58 55 67 65 59 65 -1 0 -29 -28 -62 -62z"/>
<path d="M285 1108 l-50 -53 53 50 c48 46 57 55 49 55 -1 0 -25 -24 -52 -52z"/>
<path d="M295 1078 l-40 -43 43 40 c23 21 42 40 42 42 0 8 -9 0 -45 -39z"/>
<path d="M325 1068 l-50 -53 53 50 c48 46 57 55 49 55 -1 0 -25 -24 -52 -52z"/>
<path d="M350 1065 c-29 -30 -52 -57 -49 -59 3 -3 32 21 64 54 33 33 55 60 49
60 -5 0 -34 -25 -64 -55z"/>
<path d="M380 1055 c-35 -35 -62 -67 -59 -69 3 -3 36 26 74 64 38 39 65 70 59
70 -5 0 -38 -29 -74 -65z"/>
<path d="M410 1045 c-41 -41 -72 -77 -69 -79 3 -3 41 30 84 74 44 44 75 80 70
80 -6 0 -44 -34 -85 -75z"/>
<path d="M435 1030 l-80 -80 83 -83 82 -82 80 80 80 80 -80 -3 -79 -3 -3 86
-3 86 -80 -81z"/>
<path d="M790 1075 c-19 -22 -2 -53 35 -65 19 -6 35 -17 35 -25 0 -21 -31 -27
-56 -10 -25 16 -33 8 -12 -13 17 -17 63 -15 78 3 18 22 5 44 -35 61 -36 15
-46 38 -21 47 7 3 23 -1 35 -9 18 -13 21 -13 21 -1 0 28 -59 37 -80 12z"/>
<path d="M1020 1020 c0 -40 4 -70 10 -70 6 0 10 30 10 70 0 40 -4 70 -10 70
-6 0 -10 -30 -10 -70z"/>
<path d="M1250 1080 c0 -5 5 -10 10 -10 6 0 10 5 10 10 0 6 -4 10 -10 10 -5 0
-10 -4 -10 -10z"/>
<path d="M1179 1054 c-9 -11 -10 -18 -2 -22 6 -4 13 -23 15 -42 2 -26 8 -36
23 -38 16 -3 18 -1 8 9 -17 17 -17 66 -1 71 9 3 8 9 -4 21 -20 21 -22 21 -39
1z"/>
<path d="M912 1038 c-15 -15 -15 -61 0 -76 7 -7 24 -12 38 -12 14 0 31 5 38
12 7 7 12 24 12 38 0 14 -5 31 -12 38 -15 15 -61 15 -76 0z m56 -10 c27 -27 2
-75 -32 -62 -19 7 -22 60 -3 67 19 8 22 8 35 -5z"/>
<path d="M1074 1005 l1 -50 38 -1 37 -1 -2 51 c-1 42 -2 45 -5 14 -8 -73 -58
-73 -66 0 -3 25 -4 21 -3 -13z"/>
<path d="M1250 1000 c0 -27 5 -50 10 -50 6 0 10 23 10 50 0 28 -4 50 -10 50
-5 0 -10 -22 -10 -50z"/>
<path d="M1306 1034 c-9 -8 -16 -22 -16 -30 0 -55 66 -75 96 -29 15 23 15 27
0 50 -19 29 -56 33 -80 9z m58 -10 c9 -8 16 -19 16 -24 0 -10 -29 -40 -39 -40
-13 0 -31 24 -31 40 0 16 18 40 31 40 4 0 15 -7 23 -16z"/>
<path d="M1420 999 c0 -27 4 -49 8 -49 5 0 7 12 5 28 -3 15 2 36 10 47 12 16
17 17 30 6 9 -7 18 -29 20 -49 3 -25 4 -21 3 13 l-1 50 -37 1 -38 1 0 -48z"/>
</g>
</svg>
