<?xml version="1.0" standalone="no"?>
<!DOCTYPE svg PUBLIC "-//W3C//DTD SVG 20010904//EN"
 "http://www.w3.org/TR/2001/REC-SVG-20010904/DTD/svg10.dtd">
<svg version="1.0" xmlns="http://www.w3.org/2000/svg"
 width="512.000000pt" height="512.000000pt" viewBox="0 0 512.000000 512.000000"
 preserveAspectRatio="xMidYMid meet">

<g transform="translate(0.000000,512.000000) scale(0.100000,-0.100000)"
fill="#000000" stroke="none">
<path d="M2185 3902 c-72 -25 -137 -88 -181 -173 -53 -105 -75 -212 -75 -365
0 -257 95 -464 238 -520 226 -88 424 316 344 704 -32 153 -102 278 -183 326
-46 27 -110 39 -143 28z"/>
<path d="M2909 3771 c-91 -57 -169 -189 -205 -346 -24 -105 -24 -301 0 -399
34 -140 106 -246 192 -282 180 -75 371 179 391 521 13 228 -66 446 -186 513
-58 33 -134 30 -192 -7z"/>
<path d="M1440 3286 c-54 -28 -112 -101 -142 -176 -26 -67 -35 -225 -19 -315
23 -124 105 -255 196 -314 35 -22 51 -26 122 -26 74 0 85 3 125 30 155 109
199 402 92 622 -33 69 -114 156 -167 182 -61 30 -148 28 -207 -3z"/>
<path d="M3531 3118 c-103 -51 -206 -200 -248 -358 -24 -88 -23 -275 1 -345
25 -71 69 -136 113 -165 30 -21 48 -25 107 -25 65 0 76 3 127 37 94 63 169
179 211 323 31 109 31 282 0 368 -22 60 -52 109 -87 140 -57 51 -151 62 -224
25z"/>
<path d="M2362 2715 c-139 -30 -210 -89 -335 -277 -123 -185 -165 -222 -363
-319 -194 -95 -247 -138 -283 -232 -63 -169 -22 -360 101 -473 87 -79 222
-134 328 -134 47 0 319 42 510 80 176 34 325 24 510 -35 292 -93 631 -36 747
126 62 87 81 231 43 333 -28 73 -95 140 -256 254 -157 110 -232 187 -344 347
-102 146 -205 252 -280 288 -109 53 -253 69 -378 42z"/>
</g>
</svg>
